<?xml version="1.0" encoding="utf-8"?>
<!-- Generator: Adobe Illustrator 25.1.0, SVG Export Plug-In . SVG Version: 6.00 Build 0)  -->
<svg version="1.1"
	 id="svg8" xmlns:cc="http://creativecommons.org/ns#" xmlns:dc="http://purl.org/dc/elements/1.1/" xmlns:rdf="http://www.w3.org/1999/02/22-rdf-syntax-ns#" xmlns:svg="http://www.w3.org/2000/svg"
	 xmlns="http://www.w3.org/2000/svg" xmlns:xlink="http://www.w3.org/1999/xlink" x="0px" y="0px" viewBox="0 0 1366 768"
	 style="enable-background:new 0 0 1366 768;" xml:space="preserve">
<style type="text/css">
	.st0{fill:#1E1E1E;}
	.st1{fill:#8980F5;}
	.st2{fill:none;stroke:#8980F5;stroke-width:4;stroke-miterlimit:10;}
</style>
<rect id="rect840" y="0" class="st0" width="1366" height="768"/>
<g>
	<circle id="path842" class="st1" cx="334.2" cy="555.3" r="14.3"/>
	<circle id="circle846" class="st1" cx="252.4" cy="604.8" r="14.3"/>
	<circle id="path850" class="st1" cx="127.4" cy="450.2" r="9.1"/>
	
		<ellipse id="path852" transform="matrix(0.1602 -0.9871 0.9871 0.1602 -325.2021 686.8962)" class="st1" cx="241.1" cy="534.6" rx="13.6" ry="13.6"/>
	<circle id="path854" class="st1" cx="99.1" cy="569.8" r="12.1"/>
	<circle id="path856" class="st1" cx="167.3" cy="589.1" r="9.6"/>
	<circle id="path858" class="st1" cx="206.7" cy="683.1" r="8.6"/>
	<circle id="path860" class="st1" cx="107.8" cy="660.8" r="8.6"/>
	<circle id="path862" class="st1" cx="44.1" cy="478" r="12.6"/>
	<circle id="path864" class="st1" cx="148.1" cy="515.4" r="8.6"/>
	<circle id="path866" class="st1" cx="51.7" cy="584.6" r="10.1"/>
	
		<ellipse id="path868" transform="matrix(0.1602 -0.9871 0.9871 0.1602 -222.0401 997.0469)" class="st1" cx="474.9" cy="629" rx="9.1" ry="9.1"/>
	<circle id="path870" class="st1" cx="404.2" cy="664.4" r="10.1"/>
	<circle id="path872" class="st1" cx="412.8" cy="602.2" r="11.6"/>
	<circle id="path874" class="st1" cx="570.9" cy="624" r="12.1"/>
	<circle id="path876" class="st1" cx="530" cy="684.1" r="8.6"/>
	<circle id="path878" class="st1" cx="675.9" cy="666.4" r="12.1"/>
	<circle id="path880" class="st1" cx="637.6" cy="710.8" r="10.1"/>
	<circle id="path882" class="st1" cx="632.5" cy="627" r="10.1"/>
	<circle id="path884" class="st1" cx="784" cy="681.5" r="11.1"/>
	<circle id="path886" class="st1" cx="734" cy="637.6" r="10.6"/>
	<circle id="path888" class="st1" cx="732" cy="722.5" r="9.6"/>
	<circle id="path890" class="st1" cx="847.2" cy="732.6" r="11.6"/>
	<circle id="path892" class="st1" cx="817.4" cy="642.1" r="12.1"/>
	<circle id="path894" class="st1" cx="899.2" cy="694.7" r="10.1"/>
	<circle id="path896" class="st1" cx="894.6" cy="624.5" r="11.6"/>
	<circle id="path898" class="st1" cx="1021.9" cy="630.5" r="9.6"/>
	
		<ellipse id="path900" transform="matrix(0.1602 -0.9871 0.9871 0.1602 177.6648 1488.0571)" class="st1" cx="963.3" cy="639.6" rx="8.6" ry="8.6"/>
	<circle id="path902" class="st1" cx="984" cy="687.6" r="12.1"/>
	<circle id="path904" class="st1" cx="1066.4" cy="692.1" r="8.6"/>
	<circle id="path906" class="st1" cx="1030.5" cy="721.9" r="8.1"/>
	<circle id="path908" class="st1" cx="1103.7" cy="626.5" r="10.6"/>
	<circle id="path910" class="st1" cx="1126" cy="669.9" r="9.6"/>
	<circle id="path912" class="st1" cx="1128.5" cy="726" r="9.1"/>
	<circle id="path914" class="st1" cx="1206.3" cy="627" r="14.1"/>
	<circle id="path916" class="st1" cx="1196.7" cy="683.1" r="9.6"/>
	<circle id="path918" class="st1" cx="1275.5" cy="645.7" r="12.6"/>
	<circle id="path920" class="st1" cx="1333.6" cy="644.2" r="12.1"/>
	<circle id="path922" class="st1" cx="1242.4" cy="652.9" r="10.2"/>
	<circle id="path924" class="st1" cx="1325" cy="692.1" r="6.6"/>
	<circle id="path928" class="st1" cx="1207.3" cy="731" r="7.1"/>
	<circle id="path930" class="st1" cx="1318.4" cy="733.1" r="11.1"/>
	<circle id="circle846_2_" class="st1" cx="502.7" cy="539.2" r="18.3"/>
	<circle id="circle846_1_" class="st1" cx="1175.6" cy="604.8" r="14.3"/>
	
		<ellipse id="path852_1_" transform="matrix(0.997 -7.801132e-02 7.801132e-02 0.997 -39.3081 89.9802)" class="st1" cx="1132" cy="548.1" rx="13.6" ry="13.6"/>
	<circle id="path872_1_" class="st1" cx="1231.8" cy="549.3" r="14.8"/>
	<circle id="path876_1_" class="st1" cx="847.9" cy="580.5" r="16.2"/>
	<circle id="path874_2_" class="st1" cx="598.3" cy="569.6" r="12.4"/>
	<circle id="path874_1_" class="st1" cx="375.1" cy="564.3" r="15.5"/>
	<circle id="path892_1_" class="st1" cx="763.8" cy="570.4" r="15.3"/>
	<circle id="path930_1_" class="st1" cx="1302.6" cy="668.4" r="15.8"/>
	<circle id="path1014" class="st1" cx="358.3" cy="647.7" r="8.6"/>
</g>
<g>
	<path id="path844" class="st2" d="M330.2,570.3c0,0-46.5,147.5-24.2,271.7"/>
	<path id="path932" class="st2" d="M44.3,488.6c0,0-24.3,287.9-15,308.6"/>
	<path id="path934" class="st2" d="M54.3,595c0,0-0.7,170.7,7.1,190"/>
	<path id="path936" class="st2" d="M127.1,457.9c0,0-55,309.3-28.6,340"/>
	<path id="path938" class="st2" d="M100.7,576.4c0,0-10.7,183.6,20,219.3"/>
	<path id="path940" class="st2" d="M107.1,663.6c0,0-33.6,95.7-8.6,134.3"/>
	<path id="path942" class="st2" d="M169.3,597.9c0,0-4.3,157.1,0,190.7"/>
	<path id="path944" class="st2" d="M147.1,517.9c0,0-22.9,265.7-10.7,287.9"/>
	<path id="path946" class="st2" d="M241.4,540c0,0-32.9,222.1-7.1,262.1"/>
	<path id="path948" class="st2" d="M207.1,689.3c0,0-19.3,90.7-5,113.6"/>
	<path id="path950" class="st2" d="M251.4,615.7c0,0,15.7,167.1,11.4,200.7"/>
	<path id="path950_2_" class="st2" d="M501.6,552.3c0,0,20.1,214.2,14.6,257.2"/>
	<path id="path946_1_" class="st2" d="M1132.8,553.4c0,0,20.7,223.6,55.1,256.4"/>
	<path id="path950_1_" class="st2" d="M1174.7,615.7c0,0,15.7,167.1,11.4,200.7"/>
	<path id="path952" class="st2" d="M405.7,670c0,0,2.1,121.4,6.4,145"/>
	<path id="path954" class="st2" d="M416.4,607.1c0,0,46.4,165,42.9,182.1"/>
	<path id="path954_1_" class="st2" d="M1236.5,554.6c0,0,59.2,210.5,54.7,232.3"/>
	<path id="path956" class="st2" d="M474.3,635.7c0,0,15,151.4,30,166.4"/>
	<path id="path958" class="st2" d="M529.3,690.7c0,0,23.6,94.3,19.3,109.3"/>
	<path id="path958_1_" class="st2" d="M846.8,590.1c0,0,44.5,178,36.4,206.4"/>
	<path id="path960" class="st2" d="M573.6,631.4c0,0,7.9,145.7,18.6,163.6"/>
	<path id="path960_2_" class="st2" d="M598.2,573.7c0,0,12.4,230,29.3,258.2"/>
	<path id="path960_1_" class="st2" d="M378.6,572.9c0,0,10.7,186.3,24.5,209.1"/>
	<path id="path962" class="st2" d="M637.9,718.6c0,0,15,57.9,4.3,77.9"/>
	<path id="path964" class="st2" d="M634.3,633.6c0,0,47.9,140.7,37.9,162.9"/>
	<path id="path966" class="st2" d="M678.6,672.9c0,0-0.7,106.4,10,127.9"/>
	<path id="path968" class="st2" d="M732.1,730.7c0,0,10,29.3,0,56.4"/>
	<path id="path970" class="st2" d="M739.3,647.9c0,0,36.4,122.1,36.4,146.4"/>
	<path id="path972" class="st2" d="M783.9,684.3c0,0,25.2,93.6,26.1,112.1"/>
	<path id="path974" class="st2" d="M844.3,733.6c0,0,12.1,55,5,67.1"/>
	<path id="path976" class="st2" d="M815.7,645.7c0,0,27.9,151.4,15,167.1"/>
	<path id="path976_1_" class="st2" d="M763.7,570.2c0,0,22.8,190.7,12.3,210.5"/>
	<path id="path978" class="st2" d="M902.1,701.4c0,0,5,94.3,12.1,108.6"/>
	<path id="path980" class="st2" d="M895.7,630c0,0,43.6,142.9,42.9,169.3"/>
	<path id="path982" class="st2" d="M961.4,641.4c0,0,22.1,177.9,16.4,187.1"/>
	<path id="path984" class="st2" d="M986.4,693.6c0,0,2.9,81.4,22.9,107.9"/>
	<path id="path986" class="st2" d="M1032.9,725.7c0,0,5.7,52.9,5.7,70.7"/>
	<path id="path988" class="st2" d="M1067.1,696.4c0,0-5.7,75.7,10,102.9"/>
	<path id="path990" class="st2" d="M1022.9,632.1c0,0,32.1,152.1,35,173.6"/>
	<path id="path992" class="st2" d="M1130,730.7c0,0,5.7,28.6,3.6,53.6"/>
	<path id="path994" class="st2" d="M1126.4,671.4c0,0,43.6,110.7,35.7,137.1"/>
	<path id="path996" class="st2" d="M1102.9,630.7c0,0-16.4,150.7-5,170"/>
	<path id="path998" class="st2" d="M1205.1,739.7c0,0,20.7-33.8,10.7,62.4"/>
	<path id="path1000" class="st2" d="M1196.4,686.4c0,0-12.9,106.4-3.6,126.4"/>
	<path id="path1002" class="st2" d="M1206.4,630.7c0,0,36.4,141.4,37.9,165.7"/>
	<path id="path1004" class="st2" d="M1244.1,658c0,0,22,135.9,17.2,144.5"/>
	<path id="path1006" class="st2" d="M1319.3,737.9c0,0-1.4,57.9,9.3,71.4"/>
	<path id="path1006_1_" class="st2" d="M1303.9,673.8c0,0-2,82.2,13.2,101.5"/>
	<path id="path1008" class="st2" d="M1324.3,694.3c0,0,32.9,111.4,28.6,122.9"/>
	<path id="path1010" class="st2" d="M1333.6,652.1c0,0,13.6,150,19.3,165"/>
	<path id="path1012" class="st2" d="M1272.9,650c0,0,44.3,150.7,27.1,163.6"/>
	<path id="path1016" class="st2" d="M357.6,652.6c0,0-9.1,125.3,5.1,165.7"/>
</g>
</svg>
